# xmcd
#
# Track frame offsets:
#	150
#	15590
#	32684
#	50408
#	65096
#	78811
#	96183
#	109529
#	124449
#	141293
#	157902
#	171428
#	186885
#	203664
#
# Disc length: 2977 seconds
#
# Revision: 1
# Processed by: cddbd v1.5.2PL0 Copyright (c) Steve Scherf et al.
# Submitted via: audiograbber 1.83.01
#
DISCID=ba0b9f0e
DTITLE=Various Artist - CDX 501
DYEAR=2010
DGENRE=Country
TTITLE0=Blake Wise - Cornfields
TTITLE1=The Band Perry - If I Die Young
TTITLE2=Danny Gokey - I Will Not Say Goodbye
TTITLE3=The Bellamy Brothers - Jalapenos
TTITLE4=The Grascals - Last Train To Clarksville
TTITLE5=Bo Bice - You Take Yourself With You
TTITLE6=Andy Velo - Hank It Up
TTITLE7=Kelly Parkes - Nothing Good Ever Happens After Midnight
TTITLE8=Flynville Train - Preachin' To The Choir
TTITLE9=Mark Cooke - Can't Cheat In A Small Town
TTITLE10=Christy Angeletti - Drinving Me Crazy
TTITLE11=Joanna Mosca - Like I'm Leaving
TTITLE12=Derek O'Bannon - The Truth Talks Too Much
TTITLE13=Mark Allan - With Just One Kiss
EXTD=
EXTT0=
EXTT1=
EXTT2=
EXTT3=
EXTT4=
EXTT5=
EXTT6=
EXTT7=
EXTT8=
EXTT9=
EXTT10=
EXTT11=
EXTT12=
EXTT13=
PLAYORDER=
